<svg xmlns="http://www.w3.org/2000/svg" xmlns:xlink="http://www.w3.org/1999/xlink" width="500" zoomAndPan="magnify" viewBox="0 0 375 374.999991" height="500" preserveAspectRatio="xMidYMid meet" version="1.0"><defs><g/><clipPath id="a676ba9464"><path d="M 136.980469 156.046875 L 201.480469 156.046875 L 201.480469 231 L 136.980469 231 Z M 136.980469 156.046875 " clip-rule="nonzero"/></clipPath></defs><path fill="#f2c7bd" d="M 138.085938 164.332031 L 138.085938 214.933594 C 138.085938 210.984375 141.320312 207.753906 145.28125 207.753906 L 145.28125 157.15625 C 141.320312 157.15625 138.085938 160.382812 138.085938 164.332031 Z M 138.085938 164.332031 " fill-opacity="1" fill-rule="evenodd"/><path fill="#fbfbfb" d="M 156.402344 214.933594 L 200.371094 214.933594 L 200.371094 207.753906 L 145.28125 207.753906 C 141.320312 207.753906 138.085938 210.984375 138.085938 214.933594 C 138.085938 218.878906 141.320312 222.109375 145.28125 222.109375 L 146.6875 222.109375 L 146.6875 214.933594 Z M 156.402344 214.933594 " fill-opacity="1" fill-rule="evenodd"/><path fill="#fbfbfb" d="M 158.242188 200.386719 L 187.414062 200.386719 C 188.144531 200.386719 188.746094 199.789062 188.746094 199.058594 L 188.746094 194.351562 L 156.910156 194.351562 L 156.910156 199.058594 C 156.910156 199.789062 157.507812 200.386719 158.242188 200.386719 Z M 158.242188 200.386719 " fill-opacity="1" fill-rule="evenodd"/><path fill="#fbfbfb" d="M 156.910156 194.351562 L 188.746094 194.351562 L 188.746094 182.425781 C 191.027344 181 192.546875 178.46875 192.546875 175.585938 C 192.546875 171.128906 188.929688 167.519531 184.460938 167.519531 C 182.925781 167.519531 181.488281 167.945312 180.269531 168.683594 C 178.621094 166.359375 175.902344 164.839844 172.828125 164.839844 C 169.753906 164.839844 167.035156 166.359375 165.382812 168.683594 C 164.164062 167.945312 162.730469 167.519531 161.195312 167.519531 C 156.730469 167.519531 153.105469 171.128906 153.105469 175.585938 C 153.105469 178.46875 154.625 181 156.910156 182.425781 Z M 156.910156 194.351562 " fill-opacity="1" fill-rule="evenodd"/><path fill="#e7b2a5" d="M 153.105469 175.585938 C 153.105469 171.128906 156.730469 167.519531 161.195312 167.519531 C 162.730469 167.519531 164.164062 167.945312 165.382812 168.683594 C 167.035156 166.359375 169.753906 164.839844 172.828125 164.839844 C 175.902344 164.839844 178.621094 166.359375 180.273438 168.683594 C 181.492188 167.945312 182.925781 167.519531 184.460938 167.519531 C 188.929688 167.519531 192.546875 171.128906 192.546875 175.585938 C 192.546875 178.46875 191.027344 181 188.746094 182.425781 L 188.746094 199.058594 C 188.746094 199.789062 188.144531 200.386719 187.414062 200.386719 L 158.242188 200.386719 C 157.507812 200.386719 156.910156 199.789062 156.910156 199.058594 L 156.910156 182.425781 C 154.625 181 153.105469 178.46875 153.105469 175.585938 Z M 145.28125 207.753906 L 200.371094 207.753906 L 200.371094 157.15625 L 145.28125 157.15625 Z M 145.28125 207.753906 " fill-opacity="1" fill-rule="evenodd"/><path fill="#fa877f" d="M 156.402344 222.109375 L 156.402344 214.933594 L 146.6875 214.933594 L 146.6875 229.882812 L 151.542969 227.285156 L 156.402344 229.882812 Z M 156.402344 222.109375 " fill-opacity="1" fill-rule="evenodd"/><path fill="#000000" d="M 184.460938 166.410156 C 183.109375 166.410156 181.78125 166.707031 180.570312 167.269531 C 178.636719 165.039062 175.808594 163.730469 172.828125 163.730469 C 169.847656 163.730469 167.019531 165.039062 165.085938 167.269531 C 163.871094 166.707031 162.546875 166.410156 161.195312 166.410156 C 156.125 166.410156 151.996094 170.527344 151.996094 175.585938 C 151.996094 178.554688 153.40625 181.289062 155.800781 183.011719 L 155.800781 199.058594 C 155.800781 200.402344 156.894531 201.492188 158.242188 201.492188 L 187.414062 201.492188 C 188.761719 201.492188 189.855469 200.402344 189.855469 199.058594 L 189.855469 183.011719 C 192.246094 181.289062 193.65625 178.554688 193.65625 175.585938 C 193.65625 170.527344 189.53125 166.410156 184.460938 166.410156 Z M 187.414062 199.28125 L 158.242188 199.28125 C 158.121094 199.28125 158.019531 199.179688 158.019531 199.058594 L 158.019531 195.457031 L 187.636719 195.457031 L 187.636719 199.058594 C 187.636719 199.179688 187.535156 199.28125 187.414062 199.28125 Z M 188.15625 181.488281 C 187.832031 181.691406 187.636719 182.042969 187.636719 182.425781 L 187.636719 193.246094 L 182.257812 193.246094 L 182.257812 188.585938 C 182.257812 187.972656 181.761719 187.480469 181.148438 187.480469 C 180.535156 187.480469 180.039062 187.972656 180.039062 188.585938 L 180.039062 193.246094 L 173.9375 193.246094 L 173.9375 188.585938 C 173.9375 187.972656 173.441406 187.480469 172.828125 187.480469 C 172.214844 187.480469 171.71875 187.972656 171.71875 188.585938 L 171.71875 193.246094 L 165.613281 193.246094 L 165.613281 188.585938 C 165.613281 187.972656 165.117188 187.480469 164.503906 187.480469 C 163.890625 187.480469 163.394531 187.972656 163.394531 188.585938 L 163.394531 193.246094 L 158.019531 193.246094 L 158.019531 182.425781 C 158.019531 182.042969 157.820312 181.691406 157.496094 181.488281 C 155.441406 180.203125 154.214844 177.996094 154.214844 175.585938 C 154.214844 171.746094 157.347656 168.625 161.195312 168.625 C 162.472656 168.625 163.722656 168.972656 164.808594 169.628906 C 165.304688 169.929688 165.949219 169.796875 166.289062 169.324219 C 167.792969 167.207031 170.238281 165.945312 172.828125 165.945312 C 175.417969 165.945312 177.863281 167.207031 179.367188 169.324219 C 179.703125 169.796875 180.351562 169.929688 180.847656 169.628906 C 181.933594 168.972656 183.179688 168.625 184.460938 168.625 C 188.308594 168.625 191.4375 171.746094 191.4375 175.585938 C 191.4375 177.996094 190.210938 180.203125 188.15625 181.488281 Z M 188.15625 181.488281 " fill-opacity="1" fill-rule="nonzero"/><path fill="#f2c7bd" d="M 145.28125 157.15625 L 151.542969 157.15625 L 151.542969 207.753906 L 145.28125 207.753906 Z M 145.28125 157.15625 " fill-opacity="1" fill-rule="evenodd"/><path fill="#ebebeb" d="M 156.402344 214.933594 L 200.371094 214.933594 L 200.371094 222.109375 L 156.402344 222.109375 Z M 156.402344 214.933594 " fill-opacity="1" fill-rule="evenodd"/><g clip-path="url(#a676ba9464)"><path fill="#000000" d="M 200.371094 156.050781 L 145.28125 156.050781 C 140.703125 156.050781 136.976562 159.765625 136.976562 164.332031 L 136.976562 214.933594 C 136.976562 219.5 140.703125 223.214844 145.28125 223.214844 L 145.578125 223.214844 L 145.578125 229.882812 C 145.578125 230.269531 145.785156 230.632812 146.117188 230.832031 C 146.292969 230.9375 146.492188 230.988281 146.6875 230.988281 C 146.867188 230.988281 147.046875 230.945312 147.210938 230.855469 L 151.542969 228.539062 L 155.878906 230.855469 C 156.222656 231.039062 156.636719 231.03125 156.972656 230.832031 C 157.304688 230.632812 157.511719 230.269531 157.511719 229.882812 L 157.511719 223.214844 L 200.371094 223.214844 C 200.984375 223.214844 201.480469 222.71875 201.480469 222.109375 L 201.480469 157.15625 C 201.480469 156.546875 200.984375 156.050781 200.371094 156.050781 Z M 199.261719 206.648438 L 146.390625 206.648438 L 146.390625 158.261719 L 199.261719 158.261719 Z M 139.195312 164.332031 C 139.195312 161.363281 141.34375 158.886719 144.171875 158.363281 L 144.171875 206.722656 C 142.21875 206.984375 140.476562 207.925781 139.195312 209.304688 Z M 155.292969 228.035156 L 152.066406 226.3125 C 151.902344 226.222656 151.722656 226.179688 151.542969 226.179688 C 151.363281 226.179688 151.183594 226.222656 151.019531 226.3125 L 147.796875 228.035156 L 147.796875 216.039062 L 155.292969 216.039062 Z M 199.261719 221.003906 L 157.511719 221.003906 L 157.511719 216.039062 L 199.261719 216.039062 Z M 199.261719 213.828125 L 146.6875 213.828125 C 146.074219 213.828125 145.578125 214.320312 145.578125 214.933594 L 145.578125 221.003906 L 145.28125 221.003906 C 141.925781 221.003906 139.195312 218.28125 139.195312 214.933594 C 139.195312 211.582031 141.925781 208.859375 145.28125 208.859375 L 199.261719 208.859375 Z M 199.261719 213.828125 " fill-opacity="1" fill-rule="nonzero"/></g><g fill="#000000" fill-opacity="1"><g transform="translate(83.866205, 194.024181)"><g><path d="M 1.15625 0 L 1.15625 -0.265625 L 2.265625 -0.265625 C 2.960938 -0.265625 3.445312 -0.410156 3.71875 -0.703125 C 4 -1.003906 4.140625 -1.566406 4.140625 -2.390625 L 4.140625 -16.875 C 4.140625 -17.65625 4 -18.191406 3.71875 -18.484375 C 3.445312 -18.785156 2.960938 -18.9375 2.265625 -18.9375 L 1.15625 -18.9375 L 1.15625 -19.21875 L 5.59375 -19.21875 L 12.640625 -2.015625 L 19.15625 -19.21875 L 23.28125 -19.21875 L 23.28125 -18.9375 L 22.59375 -18.9375 C 21.882812 -18.9375 21.394531 -18.785156 21.125 -18.484375 C 20.851562 -18.191406 20.71875 -17.632812 20.71875 -16.8125 L 20.71875 -2.390625 C 20.71875 -1.566406 20.851562 -1.003906 21.125 -0.703125 C 21.394531 -0.410156 21.882812 -0.265625 22.59375 -0.265625 L 23.28125 -0.265625 L 23.28125 0 L 16.5 0 L 16.5 -0.265625 L 17.21875 -0.265625 C 17.832031 -0.265625 18.269531 -0.410156 18.53125 -0.703125 C 18.800781 -1.003906 18.9375 -1.566406 18.9375 -2.390625 L 18.9375 -17.890625 L 12.1875 0 L 11.625 0 L 4.40625 -17.625 L 4.40625 -2.390625 C 4.40625 -1.566406 4.546875 -1.003906 4.828125 -0.703125 C 5.109375 -0.410156 5.609375 -0.265625 6.328125 -0.265625 L 6.96875 -0.265625 L 6.96875 0 Z M 1.15625 0 "/></g></g></g><g fill="#000000" fill-opacity="1"><g transform="translate(111.418792, 194.024181)"><g><path d="M 4.28125 0 L 4.28125 -0.265625 L 5.21875 -0.265625 C 5.914062 -0.265625 6.40625 -0.410156 6.6875 -0.703125 C 6.96875 -1.003906 7.109375 -1.566406 7.109375 -2.390625 L 7.109375 -8.9375 L 2.125 -17.65625 C 1.820312 -18.1875 1.550781 -18.53125 1.3125 -18.6875 C 1.082031 -18.851562 0.707031 -18.9375 0.1875 -18.9375 L -0.21875 -18.9375 L -0.21875 -19.21875 L 6 -19.21875 L 6 -18.9375 L 5.078125 -18.9375 C 4.648438 -18.9375 4.351562 -18.882812 4.1875 -18.78125 C 4.03125 -18.6875 3.953125 -18.539062 3.953125 -18.34375 C 3.953125 -18.164062 4 -17.957031 4.09375 -17.71875 C 4.195312 -17.488281 4.335938 -17.210938 4.515625 -16.890625 L 6.828125 -12.8125 C 7.191406 -12.164062 7.539062 -11.523438 7.875 -10.890625 C 8.21875 -10.265625 8.515625 -9.703125 8.765625 -9.203125 C 8.960938 -9.597656 9.171875 -10.023438 9.390625 -10.484375 C 9.617188 -10.953125 9.90625 -11.492188 10.25 -12.109375 L 12.53125 -16.59375 C 12.71875 -16.957031 12.867188 -17.273438 12.984375 -17.546875 C 13.097656 -17.828125 13.15625 -18.0625 13.15625 -18.25 C 13.15625 -18.5 13.050781 -18.675781 12.84375 -18.78125 C 12.632812 -18.882812 12.265625 -18.9375 11.734375 -18.9375 L 10.65625 -18.9375 L 10.65625 -19.21875 L 15.984375 -19.21875 L 15.984375 -18.9375 L 15.28125 -18.9375 C 14.78125 -18.9375 14.394531 -18.828125 14.125 -18.609375 C 13.851562 -18.398438 13.550781 -17.957031 13.21875 -17.28125 L 8.9375 -8.9375 L 8.9375 -2.390625 C 8.9375 -1.566406 9.066406 -1.003906 9.328125 -0.703125 C 9.597656 -0.410156 10.09375 -0.265625 10.8125 -0.265625 L 11.734375 -0.265625 L 11.734375 0 Z M 4.28125 0 "/></g></g></g><g fill="#000000" fill-opacity="1"><g transform="translate(211.041334, 194.024181)"><g><path d="M 1.15625 0 L 1.15625 -0.265625 L 1.890625 -0.265625 C 2.585938 -0.265625 3.070312 -0.410156 3.34375 -0.703125 C 3.625 -1.003906 3.765625 -1.566406 3.765625 -2.390625 L 3.765625 -16.875 C 3.765625 -17.65625 3.625 -18.191406 3.34375 -18.484375 C 3.070312 -18.785156 2.585938 -18.9375 1.890625 -18.9375 L 1.15625 -18.9375 L 1.15625 -19.21875 L 7.59375 -19.21875 C 9.882812 -19.21875 11.5625 -18.8125 12.625 -18 C 13.695312 -17.195312 14.234375 -15.953125 14.234375 -14.265625 C 14.234375 -13.222656 14.03125 -12.347656 13.625 -11.640625 C 13.21875 -10.941406 12.691406 -10.382812 12.046875 -9.96875 C 11.398438 -9.5625 10.703125 -9.257812 9.953125 -9.0625 L 14.09375 -2.765625 C 14.757812 -1.765625 15.285156 -1.097656 15.671875 -0.765625 C 16.054688 -0.429688 16.457031 -0.265625 16.875 -0.265625 L 17.0625 -0.265625 L 17.0625 0 L 16.796875 0 C 15.859375 0 15.132812 -0.0625 14.625 -0.1875 C 14.113281 -0.3125 13.679688 -0.546875 13.328125 -0.890625 C 12.984375 -1.242188 12.601562 -1.742188 12.1875 -2.390625 L 7.984375 -8.90625 L 5.59375 -8.90625 L 5.59375 -2.390625 C 5.59375 -1.566406 5.734375 -1.003906 6.015625 -0.703125 C 6.296875 -0.410156 6.785156 -0.265625 7.484375 -0.265625 L 8.171875 -0.265625 L 8.171875 0 Z M 5.59375 -9.171875 L 7.890625 -9.171875 C 9.316406 -9.171875 10.410156 -9.566406 11.171875 -10.359375 C 11.941406 -11.160156 12.328125 -12.414062 12.328125 -14.125 C 12.328125 -15.789062 11.984375 -17.007812 11.296875 -17.78125 C 10.617188 -18.550781 9.410156 -18.9375 7.671875 -18.9375 L 5.59375 -18.9375 Z M 5.59375 -9.171875 "/></g></g></g><g fill="#000000" fill-opacity="1"><g transform="translate(230.602752, 194.024181)"><g><path d="M 1.15625 0 L 1.15625 -0.265625 L 1.890625 -0.265625 C 2.585938 -0.265625 3.070312 -0.410156 3.34375 -0.703125 C 3.625 -1.003906 3.765625 -1.566406 3.765625 -2.390625 L 3.765625 -16.875 C 3.765625 -17.65625 3.625 -18.191406 3.34375 -18.484375 C 3.070312 -18.785156 2.585938 -18.9375 1.890625 -18.9375 L 1.15625 -18.9375 L 1.15625 -19.21875 L 13.9375 -19.21875 L 14.09375 -14.640625 L 13.828125 -14.640625 L 13.75 -16.171875 C 13.695312 -17.234375 13.476562 -17.957031 13.09375 -18.34375 C 12.71875 -18.738281 12.003906 -18.9375 10.953125 -18.9375 L 5.59375 -18.9375 L 5.59375 -10.203125 L 12.265625 -10.203125 L 12.265625 -9.921875 L 5.59375 -9.921875 L 5.59375 -0.265625 L 11.734375 -0.265625 C 12.847656 -0.265625 13.597656 -0.460938 13.984375 -0.859375 C 14.378906 -1.253906 14.601562 -1.984375 14.65625 -3.046875 L 14.75 -4.578125 L 15.015625 -4.578125 L 14.828125 0 Z M 1.15625 0 "/></g></g></g><g fill="#000000" fill-opacity="1"><g transform="translate(249.599129, 194.024181)"><g><path d="M 6.9375 0.265625 C 5.789062 0.265625 4.816406 0.0976562 4.015625 -0.234375 C 3.222656 -0.578125 2.625 -1.023438 2.21875 -1.578125 C 1.8125 -2.140625 1.609375 -2.753906 1.609375 -3.421875 C 1.609375 -4.421875 2.066406 -4.921875 2.984375 -4.921875 C 3.003906 -1.640625 4.359375 0 7.046875 0 C 8.304688 0 9.273438 -0.359375 9.953125 -1.078125 C 10.640625 -1.804688 10.984375 -2.851562 10.984375 -4.21875 C 10.984375 -4.988281 10.832031 -5.632812 10.53125 -6.15625 C 10.238281 -6.675781 9.769531 -7.160156 9.125 -7.609375 C 8.488281 -8.054688 7.65625 -8.539062 6.625 -9.0625 C 5.757812 -9.507812 4.984375 -9.96875 4.296875 -10.4375 C 3.617188 -10.90625 3.082031 -11.476562 2.6875 -12.15625 C 2.289062 -12.84375 2.09375 -13.710938 2.09375 -14.765625 C 2.09375 -16.203125 2.554688 -17.347656 3.484375 -18.203125 C 4.421875 -19.054688 5.691406 -19.484375 7.296875 -19.484375 C 8.242188 -19.484375 9.078125 -19.34375 9.796875 -19.0625 C 10.515625 -18.78125 11.070312 -18.410156 11.46875 -17.953125 C 11.875 -17.503906 12.078125 -17 12.078125 -16.4375 C 12.078125 -16.007812 11.945312 -15.671875 11.6875 -15.421875 C 11.425781 -15.179688 11.0625 -15.0625 10.59375 -15.0625 C 10.59375 -16.5 10.320312 -17.550781 9.78125 -18.21875 C 9.25 -18.882812 8.410156 -19.21875 7.265625 -19.21875 C 6.117188 -19.21875 5.226562 -18.863281 4.59375 -18.15625 C 3.96875 -17.457031 3.65625 -16.484375 3.65625 -15.234375 C 3.65625 -14.398438 3.800781 -13.71875 4.09375 -13.1875 C 4.394531 -12.664062 4.84375 -12.207031 5.4375 -11.8125 C 6.039062 -11.414062 6.785156 -10.992188 7.671875 -10.546875 C 8.523438 -10.097656 9.320312 -9.640625 10.0625 -9.171875 C 10.8125 -8.703125 11.421875 -8.128906 11.890625 -7.453125 C 12.359375 -6.773438 12.59375 -5.894531 12.59375 -4.8125 C 12.59375 -3.289062 12.101562 -2.0625 11.125 -1.125 C 10.144531 -0.195312 8.75 0.265625 6.9375 0.265625 Z M 6.9375 0.265625 "/></g></g></g><g fill="#000000" fill-opacity="1"><g transform="translate(266.254661, 194.024181)"><g><path d="M 1.15625 0 L 1.15625 -0.265625 L 1.890625 -0.265625 C 2.585938 -0.265625 3.070312 -0.410156 3.34375 -0.703125 C 3.625 -1.003906 3.765625 -1.566406 3.765625 -2.390625 L 3.765625 -16.875 C 3.765625 -17.65625 3.625 -18.191406 3.34375 -18.484375 C 3.070312 -18.785156 2.585938 -18.9375 1.890625 -18.9375 L 1.15625 -18.9375 L 1.15625 -19.21875 L 8.171875 -19.21875 L 8.171875 -18.9375 L 7.484375 -18.9375 C 6.785156 -18.9375 6.296875 -18.785156 6.015625 -18.484375 C 5.734375 -18.191406 5.59375 -17.632812 5.59375 -16.8125 L 5.59375 -2.390625 C 5.59375 -1.566406 5.734375 -1.003906 6.015625 -0.703125 C 6.296875 -0.410156 6.785156 -0.265625 7.484375 -0.265625 L 8.171875 -0.265625 L 8.171875 0 Z M 1.15625 0 "/></g></g></g><g fill="#000000" fill-opacity="1"><g transform="translate(278.309215, 194.024181)"><g><path d="M 1.15625 0 L 1.15625 -0.265625 L 1.890625 -0.265625 C 2.585938 -0.265625 3.070312 -0.410156 3.34375 -0.703125 C 3.625 -1.003906 3.765625 -1.566406 3.765625 -2.390625 L 3.765625 -16.875 C 3.765625 -17.65625 3.625 -18.191406 3.34375 -18.484375 C 3.070312 -18.785156 2.585938 -18.9375 1.890625 -18.9375 L 1.15625 -18.9375 L 1.15625 -19.21875 L 8.34375 -19.21875 C 10.488281 -19.21875 12.054688 -18.722656 13.046875 -17.734375 C 14.035156 -16.742188 14.53125 -15.378906 14.53125 -13.640625 C 14.53125 -12.546875 14.3125 -11.546875 13.875 -10.640625 C 13.445312 -9.734375 12.738281 -9.003906 11.75 -8.453125 C 10.769531 -7.910156 9.4375 -7.640625 7.75 -7.640625 L 5.59375 -7.640625 L 5.59375 -2.390625 C 5.59375 -1.566406 5.734375 -1.003906 6.015625 -0.703125 C 6.296875 -0.410156 6.785156 -0.265625 7.484375 -0.265625 L 8.421875 -0.265625 L 8.421875 0 Z M 5.59375 -7.90625 L 7.59375 -7.90625 C 9.46875 -7.90625 10.773438 -8.398438 11.515625 -9.390625 C 12.253906 -10.390625 12.625 -11.789062 12.625 -13.59375 C 12.625 -15.4375 12.269531 -16.785156 11.5625 -17.640625 C 10.863281 -18.503906 9.707031 -18.9375 8.09375 -18.9375 L 5.59375 -18.9375 Z M 5.59375 -7.90625 "/></g></g></g><g fill="#000000" fill-opacity="1"><g transform="translate(296.740564, 194.024181)"><g><path d="M 1.15625 0 L 1.15625 -0.265625 L 1.890625 -0.265625 C 2.585938 -0.265625 3.070312 -0.410156 3.34375 -0.703125 C 3.625 -1.003906 3.765625 -1.566406 3.765625 -2.390625 L 3.765625 -16.875 C 3.765625 -17.65625 3.625 -18.191406 3.34375 -18.484375 C 3.070312 -18.785156 2.585938 -18.9375 1.890625 -18.9375 L 1.15625 -18.9375 L 1.15625 -19.21875 L 13.9375 -19.21875 L 14.09375 -14.640625 L 13.828125 -14.640625 L 13.75 -16.171875 C 13.695312 -17.234375 13.476562 -17.957031 13.09375 -18.34375 C 12.71875 -18.738281 12.003906 -18.9375 10.953125 -18.9375 L 5.59375 -18.9375 L 5.59375 -10.203125 L 12.265625 -10.203125 L 12.265625 -9.921875 L 5.59375 -9.921875 L 5.59375 -0.265625 L 11.734375 -0.265625 C 12.847656 -0.265625 13.597656 -0.460938 13.984375 -0.859375 C 14.378906 -1.253906 14.601562 -1.984375 14.65625 -3.046875 L 14.75 -4.578125 L 15.015625 -4.578125 L 14.828125 0 Z M 1.15625 0 "/></g></g></g><g fill="#000000" fill-opacity="1"><g transform="translate(315.736937, 194.024181)"><g><path d="M 6.9375 0.265625 C 5.789062 0.265625 4.816406 0.0976562 4.015625 -0.234375 C 3.222656 -0.578125 2.625 -1.023438 2.21875 -1.578125 C 1.8125 -2.140625 1.609375 -2.753906 1.609375 -3.421875 C 1.609375 -4.421875 2.066406 -4.921875 2.984375 -4.921875 C 3.003906 -1.640625 4.359375 0 7.046875 0 C 8.304688 0 9.273438 -0.359375 9.953125 -1.078125 C 10.640625 -1.804688 10.984375 -2.851562 10.984375 -4.21875 C 10.984375 -4.988281 10.832031 -5.632812 10.53125 -6.15625 C 10.238281 -6.675781 9.769531 -7.160156 9.125 -7.609375 C 8.488281 -8.054688 7.65625 -8.539062 6.625 -9.0625 C 5.757812 -9.507812 4.984375 -9.96875 4.296875 -10.4375 C 3.617188 -10.90625 3.082031 -11.476562 2.6875 -12.15625 C 2.289062 -12.84375 2.09375 -13.710938 2.09375 -14.765625 C 2.09375 -16.203125 2.554688 -17.347656 3.484375 -18.203125 C 4.421875 -19.054688 5.691406 -19.484375 7.296875 -19.484375 C 8.242188 -19.484375 9.078125 -19.34375 9.796875 -19.0625 C 10.515625 -18.78125 11.070312 -18.410156 11.46875 -17.953125 C 11.875 -17.503906 12.078125 -17 12.078125 -16.4375 C 12.078125 -16.007812 11.945312 -15.671875 11.6875 -15.421875 C 11.425781 -15.179688 11.0625 -15.0625 10.59375 -15.0625 C 10.59375 -16.5 10.320312 -17.550781 9.78125 -18.21875 C 9.25 -18.882812 8.410156 -19.21875 7.265625 -19.21875 C 6.117188 -19.21875 5.226562 -18.863281 4.59375 -18.15625 C 3.96875 -17.457031 3.65625 -16.484375 3.65625 -15.234375 C 3.65625 -14.398438 3.800781 -13.71875 4.09375 -13.1875 C 4.394531 -12.664062 4.84375 -12.207031 5.4375 -11.8125 C 6.039062 -11.414062 6.785156 -10.992188 7.671875 -10.546875 C 8.523438 -10.097656 9.320312 -9.640625 10.0625 -9.171875 C 10.8125 -8.703125 11.421875 -8.128906 11.890625 -7.453125 C 12.359375 -6.773438 12.59375 -5.894531 12.59375 -4.8125 C 12.59375 -3.289062 12.101562 -2.0625 11.125 -1.125 C 10.144531 -0.195312 8.75 0.265625 6.9375 0.265625 Z M 6.9375 0.265625 "/></g></g></g></svg>