<svg xmlns="http://www.w3.org/2000/svg" xmlns:xlink="http://www.w3.org/1999/xlink" width="500" zoomAndPan="magnify" viewBox="0 0 375 374.999991" height="500" preserveAspectRatio="xMidYMid meet" version="1.0"><defs><g/><clipPath id="443f43279d"><path d="M 136.964844 150 L 201.464844 150 L 201.464844 225 L 136.964844 225 Z M 136.964844 150 " clip-rule="nonzero"/></clipPath></defs><path fill="#f2c7bd" d="M 138.070312 158.285156 L 138.070312 208.882812 C 138.070312 204.9375 141.304688 201.703125 145.265625 201.703125 L 145.265625 151.109375 C 141.304688 151.109375 138.070312 154.335938 138.070312 158.285156 Z M 138.070312 158.285156 " fill-opacity="1" fill-rule="evenodd"/><path fill="#fbfbfb" d="M 156.386719 208.882812 L 200.355469 208.882812 L 200.355469 201.703125 L 145.265625 201.703125 C 141.304688 201.703125 138.070312 204.9375 138.070312 208.882812 C 138.070312 212.828125 141.304688 216.058594 145.265625 216.058594 L 146.671875 216.058594 L 146.671875 208.882812 Z M 156.386719 208.882812 " fill-opacity="1" fill-rule="evenodd"/><path fill="#fbfbfb" d="M 158.226562 194.335938 L 187.398438 194.335938 C 188.128906 194.335938 188.730469 193.742188 188.730469 193.011719 L 188.730469 188.300781 L 156.894531 188.300781 L 156.894531 193.011719 C 156.894531 193.742188 157.492188 194.335938 158.226562 194.335938 Z M 158.226562 194.335938 " fill-opacity="1" fill-rule="evenodd"/><path fill="#fbfbfb" d="M 156.894531 188.300781 L 188.730469 188.300781 L 188.730469 176.378906 C 191.011719 174.949219 192.53125 172.417969 192.53125 169.539062 C 192.53125 165.082031 188.914062 161.46875 184.445312 161.46875 C 182.910156 161.46875 181.472656 161.898438 180.253906 162.636719 C 178.605469 160.3125 175.886719 158.789062 172.8125 158.789062 C 169.738281 158.789062 167.019531 160.3125 165.367188 162.636719 C 164.148438 161.898438 162.714844 161.46875 161.179688 161.46875 C 156.714844 161.46875 153.089844 165.082031 153.089844 169.539062 C 153.089844 172.421875 154.609375 174.949219 156.894531 176.378906 Z M 156.894531 188.300781 " fill-opacity="1" fill-rule="evenodd"/><path fill="#e7b2a5" d="M 153.089844 169.539062 C 153.089844 165.082031 156.714844 161.46875 161.179688 161.46875 C 162.714844 161.46875 164.148438 161.898438 165.367188 162.636719 C 167.019531 160.3125 169.738281 158.789062 172.8125 158.789062 C 175.886719 158.789062 178.605469 160.3125 180.253906 162.636719 C 181.472656 161.898438 182.910156 161.46875 184.445312 161.46875 C 188.914062 161.46875 192.53125 165.082031 192.53125 169.539062 C 192.53125 172.417969 191.011719 174.949219 188.730469 176.378906 L 188.730469 193.011719 C 188.730469 193.742188 188.128906 194.335938 187.398438 194.335938 L 158.226562 194.335938 C 157.492188 194.335938 156.894531 193.742188 156.894531 193.011719 L 156.894531 176.378906 C 154.609375 174.949219 153.089844 172.417969 153.089844 169.539062 Z M 145.265625 201.703125 L 200.355469 201.703125 L 200.355469 151.109375 L 145.265625 151.109375 Z M 145.265625 201.703125 " fill-opacity="1" fill-rule="evenodd"/><path fill="#fa877f" d="M 156.386719 216.058594 L 156.386719 208.882812 L 146.671875 208.882812 L 146.671875 223.832031 L 151.527344 221.238281 L 156.386719 223.832031 Z M 156.386719 216.058594 " fill-opacity="1" fill-rule="evenodd"/><path fill="#000000" d="M 184.445312 160.363281 C 183.09375 160.363281 181.765625 160.65625 180.554688 161.222656 C 178.621094 158.992188 175.792969 157.683594 172.8125 157.683594 C 169.832031 157.683594 167.003906 158.992188 165.070312 161.222656 C 163.855469 160.660156 162.53125 160.363281 161.179688 160.363281 C 156.105469 160.363281 151.980469 164.476562 151.980469 169.535156 C 151.980469 172.507812 153.390625 175.238281 155.785156 176.964844 L 155.785156 193.011719 C 155.785156 194.351562 156.878906 195.445312 158.226562 195.445312 L 187.398438 195.445312 C 188.742188 195.445312 189.839844 194.351562 189.839844 193.011719 L 189.839844 176.964844 C 192.230469 175.238281 193.640625 172.507812 193.640625 169.535156 C 193.640625 164.476562 189.515625 160.363281 184.445312 160.363281 Z M 187.398438 193.230469 L 158.226562 193.230469 C 158.105469 193.230469 158.003906 193.128906 158.003906 193.011719 L 158.003906 189.410156 L 187.621094 189.410156 L 187.621094 193.011719 C 187.621094 193.128906 187.519531 193.230469 187.398438 193.230469 Z M 188.140625 175.441406 C 187.816406 175.640625 187.621094 175.996094 187.621094 176.378906 L 187.621094 187.195312 L 182.242188 187.195312 L 182.242188 182.535156 C 182.242188 181.925781 181.746094 181.429688 181.132812 181.429688 C 180.519531 181.429688 180.023438 181.925781 180.023438 182.535156 L 180.023438 187.195312 L 173.921875 187.195312 L 173.921875 182.535156 C 173.921875 181.925781 173.425781 181.429688 172.8125 181.429688 C 172.199219 181.429688 171.703125 181.925781 171.703125 182.535156 L 171.703125 187.195312 L 165.597656 187.195312 L 165.597656 182.535156 C 165.597656 181.925781 165.101562 181.429688 164.488281 181.429688 C 163.875 181.429688 163.378906 181.925781 163.378906 182.535156 L 163.378906 187.195312 L 158.003906 187.195312 L 158.003906 176.378906 C 158.003906 175.996094 157.804688 175.640625 157.480469 175.441406 C 155.425781 174.15625 154.199219 171.949219 154.199219 169.539062 C 154.199219 165.699219 157.332031 162.574219 161.175781 162.574219 C 162.457031 162.574219 163.707031 162.921875 164.789062 163.582031 C 165.289062 163.882812 165.933594 163.75 166.273438 163.273438 C 167.777344 161.160156 170.222656 159.894531 172.8125 159.894531 C 175.402344 159.894531 177.847656 161.160156 179.351562 163.273438 C 179.6875 163.75 180.332031 163.882812 180.832031 163.582031 C 181.917969 162.921875 183.164062 162.574219 184.445312 162.574219 C 188.292969 162.574219 191.421875 165.699219 191.421875 169.539062 C 191.421875 171.949219 190.195312 174.15625 188.140625 175.441406 Z M 188.140625 175.441406 " fill-opacity="1" fill-rule="nonzero"/><path fill="#f2c7bd" d="M 145.265625 151.109375 L 151.527344 151.109375 L 151.527344 201.703125 L 145.265625 201.703125 Z M 145.265625 151.109375 " fill-opacity="1" fill-rule="evenodd"/><path fill="#ebebeb" d="M 156.386719 208.882812 L 200.355469 208.882812 L 200.355469 216.058594 L 156.386719 216.058594 Z M 156.386719 208.882812 " fill-opacity="1" fill-rule="evenodd"/><g clip-path="url(#443f43279d)"><path fill="#000000" d="M 200.355469 150 L 145.265625 150 C 140.6875 150 136.960938 153.714844 136.960938 158.285156 L 136.960938 208.882812 C 136.960938 213.453125 140.6875 217.167969 145.265625 217.167969 L 145.5625 217.167969 L 145.5625 223.832031 C 145.5625 224.222656 145.769531 224.582031 146.101562 224.78125 C 146.277344 224.886719 146.476562 224.941406 146.671875 224.941406 C 146.851562 224.941406 147.03125 224.894531 147.195312 224.808594 L 151.527344 222.492188 L 155.863281 224.808594 C 156.207031 224.992188 156.621094 224.984375 156.957031 224.78125 C 157.289062 224.582031 157.496094 224.222656 157.496094 223.832031 L 157.496094 217.167969 L 200.355469 217.167969 C 200.96875 217.167969 201.464844 216.671875 201.464844 216.058594 L 201.464844 151.109375 C 201.464844 150.496094 200.96875 150 200.355469 150 Z M 199.246094 200.597656 L 146.375 200.597656 L 146.375 152.214844 L 199.246094 152.214844 Z M 139.179688 158.285156 C 139.179688 155.316406 141.328125 152.839844 144.15625 152.316406 L 144.15625 200.675781 C 142.203125 200.9375 140.460938 201.878906 139.179688 203.253906 Z M 155.277344 221.984375 L 152.050781 220.261719 C 151.886719 220.175781 151.707031 220.132812 151.527344 220.132812 C 151.347656 220.132812 151.167969 220.175781 151.003906 220.261719 L 147.78125 221.984375 L 147.78125 209.992188 L 155.277344 209.992188 Z M 199.246094 214.953125 L 157.496094 214.953125 L 157.496094 209.992188 L 199.246094 209.992188 Z M 199.246094 207.777344 L 146.671875 207.777344 C 146.058594 207.777344 145.5625 208.273438 145.5625 208.882812 L 145.5625 214.953125 L 145.265625 214.953125 C 141.910156 214.953125 139.179688 212.230469 139.179688 208.882812 C 139.179688 205.535156 141.910156 202.8125 145.265625 202.8125 L 199.246094 202.8125 Z M 199.246094 207.777344 " fill-opacity="1" fill-rule="nonzero"/></g><g fill="#000000" fill-opacity="1"><g transform="translate(83.866205, 188.60363)"><g><path d="M 1.15625 0 L 1.15625 -0.265625 L 2.265625 -0.265625 C 2.960938 -0.265625 3.445312 -0.410156 3.71875 -0.703125 C 4 -1.003906 4.140625 -1.566406 4.140625 -2.390625 L 4.140625 -16.875 C 4.140625 -17.65625 4 -18.191406 3.71875 -18.484375 C 3.445312 -18.785156 2.960938 -18.9375 2.265625 -18.9375 L 1.15625 -18.9375 L 1.15625 -19.21875 L 5.59375 -19.21875 L 12.640625 -2.015625 L 19.15625 -19.21875 L 23.28125 -19.21875 L 23.28125 -18.9375 L 22.59375 -18.9375 C 21.882812 -18.9375 21.394531 -18.785156 21.125 -18.484375 C 20.851562 -18.191406 20.71875 -17.632812 20.71875 -16.8125 L 20.71875 -2.390625 C 20.71875 -1.566406 20.851562 -1.003906 21.125 -0.703125 C 21.394531 -0.410156 21.882812 -0.265625 22.59375 -0.265625 L 23.28125 -0.265625 L 23.28125 0 L 16.5 0 L 16.5 -0.265625 L 17.21875 -0.265625 C 17.832031 -0.265625 18.269531 -0.410156 18.53125 -0.703125 C 18.800781 -1.003906 18.9375 -1.566406 18.9375 -2.390625 L 18.9375 -17.890625 L 12.1875 0 L 11.625 0 L 4.40625 -17.625 L 4.40625 -2.390625 C 4.40625 -1.566406 4.546875 -1.003906 4.828125 -0.703125 C 5.109375 -0.410156 5.609375 -0.265625 6.328125 -0.265625 L 6.96875 -0.265625 L 6.96875 0 Z M 1.15625 0 "/></g></g></g><g fill="#000000" fill-opacity="1"><g transform="translate(111.418792, 188.60363)"><g><path d="M 4.28125 0 L 4.28125 -0.265625 L 5.21875 -0.265625 C 5.914062 -0.265625 6.40625 -0.410156 6.6875 -0.703125 C 6.96875 -1.003906 7.109375 -1.566406 7.109375 -2.390625 L 7.109375 -8.9375 L 2.125 -17.65625 C 1.820312 -18.1875 1.550781 -18.53125 1.3125 -18.6875 C 1.082031 -18.851562 0.707031 -18.9375 0.1875 -18.9375 L -0.21875 -18.9375 L -0.21875 -19.21875 L 6 -19.21875 L 6 -18.9375 L 5.078125 -18.9375 C 4.648438 -18.9375 4.351562 -18.882812 4.1875 -18.78125 C 4.03125 -18.6875 3.953125 -18.539062 3.953125 -18.34375 C 3.953125 -18.164062 4 -17.957031 4.09375 -17.71875 C 4.195312 -17.488281 4.335938 -17.210938 4.515625 -16.890625 L 6.828125 -12.8125 C 7.191406 -12.164062 7.539062 -11.523438 7.875 -10.890625 C 8.21875 -10.265625 8.515625 -9.703125 8.765625 -9.203125 C 8.960938 -9.597656 9.171875 -10.023438 9.390625 -10.484375 C 9.617188 -10.953125 9.90625 -11.492188 10.25 -12.109375 L 12.53125 -16.59375 C 12.71875 -16.957031 12.867188 -17.273438 12.984375 -17.546875 C 13.097656 -17.828125 13.15625 -18.0625 13.15625 -18.25 C 13.15625 -18.5 13.050781 -18.675781 12.84375 -18.78125 C 12.632812 -18.882812 12.265625 -18.9375 11.734375 -18.9375 L 10.65625 -18.9375 L 10.65625 -19.21875 L 15.984375 -19.21875 L 15.984375 -18.9375 L 15.28125 -18.9375 C 14.78125 -18.9375 14.394531 -18.828125 14.125 -18.609375 C 13.851562 -18.398438 13.550781 -17.957031 13.21875 -17.28125 L 8.9375 -8.9375 L 8.9375 -2.390625 C 8.9375 -1.566406 9.066406 -1.003906 9.328125 -0.703125 C 9.597656 -0.410156 10.09375 -0.265625 10.8125 -0.265625 L 11.734375 -0.265625 L 11.734375 0 Z M 4.28125 0 "/></g></g></g><g fill="#000000" fill-opacity="1"><g transform="translate(211.041334, 188.60363)"><g><path d="M 1.15625 0 L 1.15625 -0.265625 L 1.890625 -0.265625 C 2.585938 -0.265625 3.070312 -0.410156 3.34375 -0.703125 C 3.625 -1.003906 3.765625 -1.566406 3.765625 -2.390625 L 3.765625 -16.875 C 3.765625 -17.65625 3.625 -18.191406 3.34375 -18.484375 C 3.070312 -18.785156 2.585938 -18.9375 1.890625 -18.9375 L 1.15625 -18.9375 L 1.15625 -19.21875 L 7.59375 -19.21875 C 9.882812 -19.21875 11.5625 -18.8125 12.625 -18 C 13.695312 -17.195312 14.234375 -15.953125 14.234375 -14.265625 C 14.234375 -13.222656 14.03125 -12.347656 13.625 -11.640625 C 13.21875 -10.941406 12.691406 -10.382812 12.046875 -9.96875 C 11.398438 -9.5625 10.703125 -9.257812 9.953125 -9.0625 L 14.09375 -2.765625 C 14.757812 -1.765625 15.285156 -1.097656 15.671875 -0.765625 C 16.054688 -0.429688 16.457031 -0.265625 16.875 -0.265625 L 17.0625 -0.265625 L 17.0625 0 L 16.796875 0 C 15.859375 0 15.132812 -0.0625 14.625 -0.1875 C 14.113281 -0.3125 13.679688 -0.546875 13.328125 -0.890625 C 12.984375 -1.242188 12.601562 -1.742188 12.1875 -2.390625 L 7.984375 -8.90625 L 5.59375 -8.90625 L 5.59375 -2.390625 C 5.59375 -1.566406 5.734375 -1.003906 6.015625 -0.703125 C 6.296875 -0.410156 6.785156 -0.265625 7.484375 -0.265625 L 8.171875 -0.265625 L 8.171875 0 Z M 5.59375 -9.171875 L 7.890625 -9.171875 C 9.316406 -9.171875 10.410156 -9.566406 11.171875 -10.359375 C 11.941406 -11.160156 12.328125 -12.414062 12.328125 -14.125 C 12.328125 -15.789062 11.984375 -17.007812 11.296875 -17.78125 C 10.617188 -18.550781 9.410156 -18.9375 7.671875 -18.9375 L 5.59375 -18.9375 Z M 5.59375 -9.171875 "/></g></g></g><g fill="#000000" fill-opacity="1"><g transform="translate(230.602752, 188.60363)"><g><path d="M 1.15625 0 L 1.15625 -0.265625 L 1.890625 -0.265625 C 2.585938 -0.265625 3.070312 -0.410156 3.34375 -0.703125 C 3.625 -1.003906 3.765625 -1.566406 3.765625 -2.390625 L 3.765625 -16.875 C 3.765625 -17.65625 3.625 -18.191406 3.34375 -18.484375 C 3.070312 -18.785156 2.585938 -18.9375 1.890625 -18.9375 L 1.15625 -18.9375 L 1.15625 -19.21875 L 13.9375 -19.21875 L 14.09375 -14.640625 L 13.828125 -14.640625 L 13.75 -16.171875 C 13.695312 -17.234375 13.476562 -17.957031 13.09375 -18.34375 C 12.71875 -18.738281 12.003906 -18.9375 10.953125 -18.9375 L 5.59375 -18.9375 L 5.59375 -10.203125 L 12.265625 -10.203125 L 12.265625 -9.921875 L 5.59375 -9.921875 L 5.59375 -0.265625 L 11.734375 -0.265625 C 12.847656 -0.265625 13.597656 -0.460938 13.984375 -0.859375 C 14.378906 -1.253906 14.601562 -1.984375 14.65625 -3.046875 L 14.75 -4.578125 L 15.015625 -4.578125 L 14.828125 0 Z M 1.15625 0 "/></g></g></g><g fill="#000000" fill-opacity="1"><g transform="translate(249.599129, 188.60363)"><g><path d="M 6.9375 0.265625 C 5.789062 0.265625 4.816406 0.0976562 4.015625 -0.234375 C 3.222656 -0.578125 2.625 -1.023438 2.21875 -1.578125 C 1.8125 -2.140625 1.609375 -2.753906 1.609375 -3.421875 C 1.609375 -4.421875 2.066406 -4.921875 2.984375 -4.921875 C 3.003906 -1.640625 4.359375 0 7.046875 0 C 8.304688 0 9.273438 -0.359375 9.953125 -1.078125 C 10.640625 -1.804688 10.984375 -2.851562 10.984375 -4.21875 C 10.984375 -4.988281 10.832031 -5.632812 10.53125 -6.15625 C 10.238281 -6.675781 9.769531 -7.160156 9.125 -7.609375 C 8.488281 -8.054688 7.65625 -8.539062 6.625 -9.0625 C 5.757812 -9.507812 4.984375 -9.96875 4.296875 -10.4375 C 3.617188 -10.90625 3.082031 -11.476562 2.6875 -12.15625 C 2.289062 -12.84375 2.09375 -13.710938 2.09375 -14.765625 C 2.09375 -16.203125 2.554688 -17.347656 3.484375 -18.203125 C 4.421875 -19.054688 5.691406 -19.484375 7.296875 -19.484375 C 8.242188 -19.484375 9.078125 -19.34375 9.796875 -19.0625 C 10.515625 -18.78125 11.070312 -18.410156 11.46875 -17.953125 C 11.875 -17.503906 12.078125 -17 12.078125 -16.4375 C 12.078125 -16.007812 11.945312 -15.671875 11.6875 -15.421875 C 11.425781 -15.179688 11.0625 -15.0625 10.59375 -15.0625 C 10.59375 -16.5 10.320312 -17.550781 9.78125 -18.21875 C 9.25 -18.882812 8.410156 -19.21875 7.265625 -19.21875 C 6.117188 -19.21875 5.226562 -18.863281 4.59375 -18.15625 C 3.96875 -17.457031 3.65625 -16.484375 3.65625 -15.234375 C 3.65625 -14.398438 3.800781 -13.71875 4.09375 -13.1875 C 4.394531 -12.664062 4.84375 -12.207031 5.4375 -11.8125 C 6.039062 -11.414062 6.785156 -10.992188 7.671875 -10.546875 C 8.523438 -10.097656 9.320312 -9.640625 10.0625 -9.171875 C 10.8125 -8.703125 11.421875 -8.128906 11.890625 -7.453125 C 12.359375 -6.773438 12.59375 -5.894531 12.59375 -4.8125 C 12.59375 -3.289062 12.101562 -2.0625 11.125 -1.125 C 10.144531 -0.195312 8.75 0.265625 6.9375 0.265625 Z M 6.9375 0.265625 "/></g></g></g><g fill="#000000" fill-opacity="1"><g transform="translate(266.254661, 188.60363)"><g><path d="M 1.15625 0 L 1.15625 -0.265625 L 1.890625 -0.265625 C 2.585938 -0.265625 3.070312 -0.410156 3.34375 -0.703125 C 3.625 -1.003906 3.765625 -1.566406 3.765625 -2.390625 L 3.765625 -16.875 C 3.765625 -17.65625 3.625 -18.191406 3.34375 -18.484375 C 3.070312 -18.785156 2.585938 -18.9375 1.890625 -18.9375 L 1.15625 -18.9375 L 1.15625 -19.21875 L 8.171875 -19.21875 L 8.171875 -18.9375 L 7.484375 -18.9375 C 6.785156 -18.9375 6.296875 -18.785156 6.015625 -18.484375 C 5.734375 -18.191406 5.59375 -17.632812 5.59375 -16.8125 L 5.59375 -2.390625 C 5.59375 -1.566406 5.734375 -1.003906 6.015625 -0.703125 C 6.296875 -0.410156 6.785156 -0.265625 7.484375 -0.265625 L 8.171875 -0.265625 L 8.171875 0 Z M 1.15625 0 "/></g></g></g><g fill="#000000" fill-opacity="1"><g transform="translate(278.309215, 188.60363)"><g><path d="M 1.15625 0 L 1.15625 -0.265625 L 1.890625 -0.265625 C 2.585938 -0.265625 3.070312 -0.410156 3.34375 -0.703125 C 3.625 -1.003906 3.765625 -1.566406 3.765625 -2.390625 L 3.765625 -16.875 C 3.765625 -17.65625 3.625 -18.191406 3.34375 -18.484375 C 3.070312 -18.785156 2.585938 -18.9375 1.890625 -18.9375 L 1.15625 -18.9375 L 1.15625 -19.21875 L 8.34375 -19.21875 C 10.488281 -19.21875 12.054688 -18.722656 13.046875 -17.734375 C 14.035156 -16.742188 14.53125 -15.378906 14.53125 -13.640625 C 14.53125 -12.546875 14.3125 -11.546875 13.875 -10.640625 C 13.445312 -9.734375 12.738281 -9.003906 11.75 -8.453125 C 10.769531 -7.910156 9.4375 -7.640625 7.75 -7.640625 L 5.59375 -7.640625 L 5.59375 -2.390625 C 5.59375 -1.566406 5.734375 -1.003906 6.015625 -0.703125 C 6.296875 -0.410156 6.785156 -0.265625 7.484375 -0.265625 L 8.421875 -0.265625 L 8.421875 0 Z M 5.59375 -7.90625 L 7.59375 -7.90625 C 9.46875 -7.90625 10.773438 -8.398438 11.515625 -9.390625 C 12.253906 -10.390625 12.625 -11.789062 12.625 -13.59375 C 12.625 -15.4375 12.269531 -16.785156 11.5625 -17.640625 C 10.863281 -18.503906 9.707031 -18.9375 8.09375 -18.9375 L 5.59375 -18.9375 Z M 5.59375 -7.90625 "/></g></g></g><g fill="#000000" fill-opacity="1"><g transform="translate(296.740564, 188.60363)"><g><path d="M 1.15625 0 L 1.15625 -0.265625 L 1.890625 -0.265625 C 2.585938 -0.265625 3.070312 -0.410156 3.34375 -0.703125 C 3.625 -1.003906 3.765625 -1.566406 3.765625 -2.390625 L 3.765625 -16.875 C 3.765625 -17.65625 3.625 -18.191406 3.34375 -18.484375 C 3.070312 -18.785156 2.585938 -18.9375 1.890625 -18.9375 L 1.15625 -18.9375 L 1.15625 -19.21875 L 13.9375 -19.21875 L 14.09375 -14.640625 L 13.828125 -14.640625 L 13.75 -16.171875 C 13.695312 -17.234375 13.476562 -17.957031 13.09375 -18.34375 C 12.71875 -18.738281 12.003906 -18.9375 10.953125 -18.9375 L 5.59375 -18.9375 L 5.59375 -10.203125 L 12.265625 -10.203125 L 12.265625 -9.921875 L 5.59375 -9.921875 L 5.59375 -0.265625 L 11.734375 -0.265625 C 12.847656 -0.265625 13.597656 -0.460938 13.984375 -0.859375 C 14.378906 -1.253906 14.601562 -1.984375 14.65625 -3.046875 L 14.75 -4.578125 L 15.015625 -4.578125 L 14.828125 0 Z M 1.15625 0 "/></g></g></g><g fill="#000000" fill-opacity="1"><g transform="translate(315.736937, 188.60363)"><g><path d="M 6.9375 0.265625 C 5.789062 0.265625 4.816406 0.0976562 4.015625 -0.234375 C 3.222656 -0.578125 2.625 -1.023438 2.21875 -1.578125 C 1.8125 -2.140625 1.609375 -2.753906 1.609375 -3.421875 C 1.609375 -4.421875 2.066406 -4.921875 2.984375 -4.921875 C 3.003906 -1.640625 4.359375 0 7.046875 0 C 8.304688 0 9.273438 -0.359375 9.953125 -1.078125 C 10.640625 -1.804688 10.984375 -2.851562 10.984375 -4.21875 C 10.984375 -4.988281 10.832031 -5.632812 10.53125 -6.15625 C 10.238281 -6.675781 9.769531 -7.160156 9.125 -7.609375 C 8.488281 -8.054688 7.65625 -8.539062 6.625 -9.0625 C 5.757812 -9.507812 4.984375 -9.96875 4.296875 -10.4375 C 3.617188 -10.90625 3.082031 -11.476562 2.6875 -12.15625 C 2.289062 -12.84375 2.09375 -13.710938 2.09375 -14.765625 C 2.09375 -16.203125 2.554688 -17.347656 3.484375 -18.203125 C 4.421875 -19.054688 5.691406 -19.484375 7.296875 -19.484375 C 8.242188 -19.484375 9.078125 -19.34375 9.796875 -19.0625 C 10.515625 -18.78125 11.070312 -18.410156 11.46875 -17.953125 C 11.875 -17.503906 12.078125 -17 12.078125 -16.4375 C 12.078125 -16.007812 11.945312 -15.671875 11.6875 -15.421875 C 11.425781 -15.179688 11.0625 -15.0625 10.59375 -15.0625 C 10.59375 -16.5 10.320312 -17.550781 9.78125 -18.21875 C 9.25 -18.882812 8.410156 -19.21875 7.265625 -19.21875 C 6.117188 -19.21875 5.226562 -18.863281 4.59375 -18.15625 C 3.96875 -17.457031 3.65625 -16.484375 3.65625 -15.234375 C 3.65625 -14.398438 3.800781 -13.71875 4.09375 -13.1875 C 4.394531 -12.664062 4.84375 -12.207031 5.4375 -11.8125 C 6.039062 -11.414062 6.785156 -10.992188 7.671875 -10.546875 C 8.523438 -10.097656 9.320312 -9.640625 10.0625 -9.171875 C 10.8125 -8.703125 11.421875 -8.128906 11.890625 -7.453125 C 12.359375 -6.773438 12.59375 -5.894531 12.59375 -4.8125 C 12.59375 -3.289062 12.101562 -2.0625 11.125 -1.125 C 10.144531 -0.195312 8.75 0.265625 6.9375 0.265625 Z M 6.9375 0.265625 "/></g></g></g></svg>